<svg width="120" height="120" viewBox="0 0 120 120" fill="none" xmlns="http://www.w3.org/2000/svg">
  <!-- Box Outline (Isometric) -->
  <path d="M60 20L100 40V80L60 100L20 80V40L60 20Z" fill="#333333" fill-opacity="0.05" stroke="#333333" stroke-width="4" stroke-linejoin="round"/>
  <path d="M60 20V60M60 60L100 40M60 60L20 40" stroke="#333333" stroke-width="4" stroke-linejoin="round"/>
  
  <!-- Mint Leaf Accent -->
  <path d="M60 85C60 85 85 85 85 60C85 35 60 35 60 35C60 35 35 35 35 60C35 85 60 85 60 85Z" fill="#58B09C"/>
  <path d="M60 85C60 85 85 85 85 60C85 35 60 35 60 35M60 85V35" stroke="white" stroke-width="3" stroke-linecap="round"/>
</svg>
